<svg width="648" height="576" viewBox="0 0 648 576" fill="none" xmlns="http://www.w3.org/2000/svg">
<path d="M0 27C0 12.0375 12.0375 0 27 0H78.1875C102.938 0 124.875 14.4 135.112 36H597.487C627.075 36 648.675 64.125 640.913 92.7L594.788 264.037C585.225 299.362 553.163 324 516.6 324H192.037L198.113 356.062C200.588 368.775 211.725 378 224.662 378H549C563.963 378 576 390.037 576 405C576 419.963 563.963 432 549 432H224.662C185.737 432 152.325 404.325 145.125 366.188L87.075 61.3125C86.2875 57.0375 82.575 54 78.1875 54H27C12.0375 54 0 41.9625 0 27ZM144 522C144 514.909 145.397 507.887 148.111 501.335C150.824 494.784 154.802 488.831 159.816 483.816C164.831 478.802 170.784 474.824 177.335 472.111C183.887 469.397 190.909 468 198 468C205.091 468 212.113 469.397 218.665 472.111C225.216 474.824 231.169 478.802 236.184 483.816C241.198 488.831 245.176 494.784 247.889 501.335C250.603 507.887 252 514.909 252 522C252 529.091 250.603 536.113 247.889 542.665C245.176 549.216 241.198 555.169 236.184 560.184C231.169 565.198 225.216 569.176 218.665 571.889C212.113 574.603 205.091 576 198 576C190.909 576 183.887 574.603 177.335 571.889C170.784 569.176 164.831 565.198 159.816 560.184C154.802 555.169 150.824 549.216 148.111 542.665C145.397 536.113 144 529.091 144 522ZM522 468C536.322 468 550.057 473.689 560.184 483.816C570.311 493.943 576 507.678 576 522C576 536.322 570.311 550.057 560.184 560.184C550.057 570.311 536.322 576 522 576C507.678 576 493.943 570.311 483.816 560.184C473.689 550.057 468 536.322 468 522C468 507.678 473.689 493.943 483.816 483.816C493.943 473.689 507.678 468 522 468Z" fill="#525020"/>
</svg>
