<svg width="864" height="691" viewBox="0 0 864 691" fill="none" xmlns="http://www.w3.org/2000/svg">
<path d="M782.73 361.29C859.005 285.037 859.005 161.548 782.73 85.2953C715.23 17.8148 608.85 9.04234 531.225 64.5113L529.065 65.9959C509.625 79.8968 505.17 106.889 519.075 126.188C532.98 145.488 559.98 150.077 579.285 136.176L581.445 134.691C624.78 103.785 684.045 108.644 721.575 146.298C764.1 188.81 764.1 257.64 721.575 300.153L570.105 451.849C527.58 494.362 458.73 494.362 416.205 451.849C378.54 414.195 373.68 354.947 404.595 311.76L406.08 309.6C419.985 290.166 415.395 263.174 396.09 249.408C376.785 235.642 349.65 240.095 335.88 259.395L334.395 261.554C278.775 339.022 287.55 445.371 355.05 512.852C431.325 589.104 554.85 589.104 631.125 512.852L782.73 361.29ZM81.27 329.71C4.995 405.962 4.995 529.452 81.27 605.705C148.77 673.185 255.15 681.958 332.775 626.489L334.935 625.004C354.375 611.103 358.83 584.111 344.925 564.811C331.02 545.512 304.02 540.923 284.715 554.824L282.555 556.309C239.22 587.215 179.955 582.356 142.425 544.702C99.9 502.055 99.9 433.225 142.425 390.712L293.895 239.151C336.42 196.638 405.27 196.638 447.795 239.151C485.46 276.805 490.32 336.053 459.405 379.375L457.92 381.535C444.015 400.969 448.605 427.961 467.91 441.727C487.215 455.493 514.35 451.039 528.12 431.74L529.605 429.581C585.225 351.978 576.45 245.629 508.95 178.148C432.675 101.895 309.15 101.895 232.875 178.148L81.27 329.71Z" fill="#525020"/>
</svg>
