<svg width="216" height="193" viewBox="0 0 216 193" fill="none" xmlns="http://www.w3.org/2000/svg">
<path d="M27 42.2188C23.2875 42.2188 20.25 44.9328 20.25 48.25V56.5807L93.0234 109.957C101.756 116.365 114.286 116.365 123.019 109.957L195.75 56.5807V48.25C195.75 44.9328 192.712 42.2188 189 42.2188H27ZM20.25 79.9895V144.75C20.25 148.067 23.2875 150.781 27 150.781H189C192.712 150.781 195.75 148.067 195.75 144.75V79.9895L135.844 123.942C119.644 135.816 96.3141 135.816 80.1562 123.942L20.25 79.9895ZM0 48.25C0 34.9436 12.1078 24.125 27 24.125H189C203.892 24.125 216 34.9436 216 48.25V144.75C216 158.056 203.892 168.875 189 168.875H27C12.1078 168.875 0 158.056 0 144.75V48.25Z" fill="#525020"/>
</svg>
