<svg width="105" height="120" viewBox="0 0 105 120" fill="none" xmlns="http://www.w3.org/2000/svg">
<g clip-path="url(#clip0_442_54)">
<path d="M93.75 7.5H11.25C8.26631 7.5 5.40483 8.68526 3.29505 10.795C1.18526 12.9048 0 15.7663 0 18.75L0 101.25C0 104.234 1.18526 107.095 3.29505 109.205C5.40483 111.315 8.26631 112.5 11.25 112.5H43.418V76.8023H28.6523V60H43.418V47.1938C43.418 32.6273 52.0898 24.5812 65.3719 24.5812C71.7328 24.5812 78.3844 25.7156 78.3844 25.7156V40.0125H71.0555C63.8344 40.0125 61.582 44.4937 61.582 49.0898V60H77.7023L75.1242 76.8023H61.582V112.5H93.75C96.7337 112.5 99.5952 111.315 101.705 109.205C103.815 107.095 105 104.234 105 101.25V18.75C105 15.7663 103.815 12.9048 101.705 10.795C99.5952 8.68526 96.7337 7.5 93.75 7.5V7.5Z" fill="#525020"/>
</g>
<defs>
<clipPath id="clip0_442_54">
<rect width="105" height="120" fill="white"/>
</clipPath>
</defs>
</svg>
