<svg width="124" height="124" viewBox="0 0 124 124" fill="none" xmlns="http://www.w3.org/2000/svg">
<g clip-path="url(#clip0_425_58)">
<path d="M85.25 62C85.25 67.3766 84.9594 72.5594 84.4508 77.5H39.5492C39.0164 72.5594 38.75 67.3766 38.75 62C38.75 56.6234 39.0406 51.4406 39.5492 46.5H84.4508C84.9836 51.4406 85.25 56.6234 85.25 62ZM92.225 46.5H122.038C123.322 51.4648 124 56.6477 124 62C124 67.3523 123.322 72.5352 122.038 77.5H92.225C92.7336 72.5109 93 67.3281 93 62C93 56.6719 92.7336 51.4891 92.225 46.5ZM119.495 38.75H91.232C88.8102 23.2742 84.0148 10.3172 77.8391 2.03437C96.8023 7.04766 112.23 20.8039 119.471 38.75H119.495ZM83.3852 38.75H40.6148C42.0922 29.9344 44.3687 22.1359 47.1539 15.8148C49.6969 10.0992 52.5305 5.95781 55.2672 3.34219C57.9797 0.775 60.232 0 62 0C63.768 0 66.0203 0.775 68.7328 3.34219C71.4695 5.95781 74.3031 10.0992 76.8461 15.8148C79.6555 22.1117 81.932 29.9102 83.3852 38.75ZM32.768 38.75H4.50469C11.7703 20.8039 27.1734 7.04766 46.1609 2.03437C39.9852 10.3172 35.1898 23.2742 32.768 38.75ZM1.96172 46.5H31.775C31.2664 51.4891 31 56.6719 31 62C31 67.3281 31.2664 72.5109 31.775 77.5H1.96172C0.678125 72.5352 0 67.3523 0 62C0 56.6477 0.678125 51.4648 1.96172 46.5ZM47.1539 108.161C44.3445 101.864 42.0922 94.0656 40.6148 85.25H83.3852C81.9078 94.0656 79.6312 101.864 76.8461 108.161C74.3031 113.877 71.4695 118.018 68.7328 120.634C66.0203 123.225 63.768 124 62 124C60.232 124 57.9797 123.225 55.2672 120.658C52.5305 118.042 49.6969 113.901 47.1539 108.185V108.161ZM32.768 85.25C35.1898 100.726 39.9852 113.683 46.1609 121.966C27.1734 116.952 11.7703 103.196 4.50469 85.25H32.768ZM119.495 85.25C112.23 103.196 96.8266 116.952 77.8633 121.966C84.0391 113.683 88.8102 100.726 91.2562 85.25H119.495Z" fill="#525020"/>
</g>
<defs>
<clipPath id="clip0_425_58">
<rect width="124" height="124" rx="62" fill="white"/>
</clipPath>
</defs>
</svg>
