<svg width="111" height="127" viewBox="0 0 111 127" fill="none" xmlns="http://www.w3.org/2000/svg">
<g clip-path="url(#clip0_442_52)">
<path d="M55.5248 34.9746C39.7667 34.9746 27.0562 47.6994 27.0562 63.4751C27.0562 79.2509 39.7667 91.9757 55.5248 91.9757C71.2828 91.9757 83.9933 79.2509 83.9933 63.4751C83.9933 47.6994 71.2828 34.9746 55.5248 34.9746ZM55.5248 82.0042C45.3415 82.0042 37.0165 73.6947 37.0165 63.4751C37.0165 53.2556 45.3167 44.946 55.5248 44.946C65.7328 44.946 74.033 53.2556 74.033 63.4751C74.033 73.6947 65.708 82.0042 55.5248 82.0042V82.0042ZM91.798 33.8087C91.798 37.5046 88.8248 40.4564 85.1578 40.4564C81.4661 40.4564 78.5176 37.4798 78.5176 33.8087C78.5176 30.1376 81.4909 27.1611 85.1578 27.1611C88.8248 27.1611 91.798 30.1376 91.798 33.8087ZM110.653 40.5556C110.232 31.6507 108.2 23.7628 101.684 17.264C95.1924 10.7652 87.3134 8.7312 78.4185 8.28472C69.2511 7.76382 41.7737 7.76382 32.6062 8.28472C23.7362 8.7064 15.8571 10.7404 9.34085 17.2392C2.82455 23.738 0.817631 31.6259 0.371649 40.5308C-0.148663 49.7085 -0.148663 77.2169 0.371649 86.3947C0.792855 95.2996 2.82455 103.187 9.34085 109.686C15.8571 116.185 23.7114 118.219 32.6062 118.666C41.7737 119.186 69.2511 119.186 78.4185 118.666C87.3134 118.244 95.1924 116.21 101.684 109.686C108.175 103.187 110.207 95.2996 110.653 86.3947C111.173 77.2169 111.173 49.7334 110.653 40.5556V40.5556ZM98.8098 96.2421C96.8772 101.104 93.1359 104.849 88.2549 106.809C80.9458 109.711 63.602 109.041 55.5248 109.041C47.4475 109.041 30.079 109.686 22.7946 106.809C17.9384 104.874 14.1971 101.129 12.2397 96.2421C9.34085 88.9248 10.0098 71.5615 10.0098 63.4751C10.0098 55.3888 9.36562 38.0007 12.2397 30.7082C14.1723 25.8464 17.9136 22.1009 22.7946 20.1414C30.1038 17.2392 47.4475 17.9089 55.5248 17.9089C63.602 17.9089 80.9705 17.264 88.2549 20.1414C93.1112 22.0761 96.8525 25.8216 98.8098 30.7082C101.709 38.0255 101.04 55.3888 101.04 63.4751C101.04 71.5615 101.709 88.9496 98.8098 96.2421Z" fill="#525020"/>
</g>
<defs>
<clipPath id="clip0_442_52">
<rect width="111" height="127" fill="white"/>
</clipPath>
</defs>
</svg>
