<svg width="140" height="160" viewBox="0 0 140 160" fill="none" xmlns="http://www.w3.org/2000/svg">
<path d="M7.09375 10.4375C11.3125 9.15621 15.875 10.7812 18.3125 14.4687L70 91.9687L121.687 14.4375C124.125 10.7812 128.687 9.12496 132.906 10.4062C137.125 11.6875 140 15.5937 140 20V140C140 145.531 135.531 150 130 150C124.469 150 120 145.531 120 140V53.0312L78.3125 115.562C76.4688 118.344 73.3437 120 70 120C66.6563 120 63.5312 118.344 61.6875 115.562L20 53.0312V140C20 145.531 15.5313 150 10 150C4.46875 150 0 145.531 0 140V20C0 15.5937 2.875 11.7187 7.09375 10.4375Z" fill="#525020"/>
</svg>
