<svg width="108" height="108" viewBox="0 0 108 108" fill="none" xmlns="http://www.w3.org/2000/svg">
<g clip-path="url(#clip0_448_54)">
<path d="M87.75 43.875C87.75 53.557 84.607 62.5008 79.3125 69.757L106.017 96.4828C108.654 99.1195 108.654 103.402 106.017 106.038C103.38 108.675 99.0984 108.675 96.4617 106.038L69.757 79.3125C62.5008 84.6281 53.557 87.75 43.875 87.75C19.6383 87.75 0 68.1117 0 43.875C0 19.6383 19.6383 0 43.875 0C68.1117 0 87.75 19.6383 87.75 43.875ZM43.875 74.25C60.6445 74.25 74.25 60.6445 74.25 43.875C74.25 27.1055 60.6445 13.5 43.875 13.5C27.1055 13.5 13.5 27.1055 13.5 43.875C13.5 60.6445 27.1055 74.25 43.875 74.25Z" fill="#525020"/>
</g>
<defs>
<clipPath id="clip0_448_54">
<rect width="108" height="108" fill="white"/>
</clipPath>
</defs>
</svg>
