<svg width="109" height="179" viewBox="0 0 109 179" fill="none" xmlns="http://www.w3.org/2000/svg">
<path d="M22.7083 0C12.6883 0 4.54167 10.0338 4.54167 22.375V156.625C4.54167 168.966 12.6883 179 22.7083 179H86.2917C96.3117 179 104.458 168.966 104.458 156.625V22.375C104.458 10.0338 96.3117 0 86.2917 0H22.7083ZM45.4167 151.031H63.5833C66.0813 151.031 68.125 153.548 68.125 156.625C68.125 159.702 66.0813 162.219 63.5833 162.219H45.4167C42.9188 162.219 40.875 159.702 40.875 156.625C40.875 153.548 42.9188 151.031 45.4167 151.031Z" fill="#525020"/>
</svg>
