<svg width="157" height="179" viewBox="0 0 157 179" fill="none" xmlns="http://www.w3.org/2000/svg">
<path d="M70.0893 120.266V97.8906H47.6607C42.9998 97.8906 39.25 94.1498 39.25 89.5C39.25 84.8502 42.9998 81.1094 47.6607 81.1094H70.0893V58.7344C70.0893 54.0846 73.8391 50.3438 78.5 50.3438C83.1609 50.3438 86.9107 54.0846 86.9107 58.7344V81.1094H109.339C114 81.1094 117.75 84.8502 117.75 89.5C117.75 94.1498 114 97.8906 109.339 97.8906H86.9107V120.266C86.9107 124.915 83.1609 128.656 78.5 128.656C73.8391 128.656 70.0893 124.915 70.0893 120.266ZM0 33.5625C0 21.2038 10.0403 11.1875 22.4286 11.1875H134.571C146.942 11.1875 157 21.2038 157 33.5625V145.438C157 157.779 146.942 167.812 134.571 167.812H22.4286C10.0403 167.812 0 157.779 0 145.438V33.5625ZM16.8214 33.5625V145.438C16.8214 148.514 19.3306 151.031 22.4286 151.031H134.571C137.655 151.031 140.179 148.514 140.179 145.438V33.5625C140.179 30.472 137.655 27.9688 134.571 27.9688H22.4286C19.3306 27.9688 16.8214 30.472 16.8214 33.5625Z" fill="#525020"/>
</svg>
