<svg width="106" height="121" viewBox="0 0 106 121" fill="none" xmlns="http://www.w3.org/2000/svg">
<g clip-path="url(#clip0_448_52)">
<path d="M31.9893 4.18301L30.2857 7.5625H7.57143C3.38348 7.5625 0 10.942 0 15.125C0 19.308 3.38348 22.6875 7.57143 22.6875H98.4286C102.617 22.6875 106 19.308 106 15.125C106 10.942 102.617 7.5625 98.4286 7.5625H75.7143L74.0107 4.18301C72.733 1.60703 70.1067 0 67.2438 0H38.7563C35.8933 0 33.267 1.60703 31.9893 4.18301V4.18301ZM98.4286 30.25H7.57143L12.5875 110.365C12.9661 116.344 17.9348 121 23.921 121H82.079C88.0652 121 93.0339 116.344 93.4125 110.365L98.4286 30.25Z" fill="#525020"/>
</g>
<defs>
<clipPath id="clip0_448_52">
<rect width="106" height="121" fill="white"/>
</clipPath>
</defs>
</svg>
