<svg width="134" height="134" viewBox="0 0 134 134" fill="none" xmlns="http://www.w3.org/2000/svg">
<path d="M120.226 39.7069C120.311 40.8972 120.311 42.0878 120.311 43.2781C120.311 79.5837 92.6777 121.416 42.1726 121.416C26.6129 121.416 12.1587 116.91 0 109.088C2.21074 109.343 4.33616 109.428 6.63195 109.428C19.4706 109.428 31.2893 105.092 40.7271 97.6944C28.6535 97.4392 18.5354 89.5319 15.0494 78.6486C16.75 78.9035 18.4504 79.0736 20.2361 79.0736C22.7017 79.0736 25.1677 78.7334 27.4632 78.1385C14.8795 75.5875 5.44139 64.5344 5.44139 51.1854V50.8454C9.09734 52.8861 13.349 54.1614 17.855 54.3313C10.4578 49.3997 5.61151 40.9823 5.61151 31.4594C5.61151 26.358 6.97166 21.6816 9.35252 17.6003C22.8716 34.2653 43.1928 45.1483 65.9793 46.3389C65.5543 44.2983 65.2991 42.1729 65.2991 40.0472C65.2991 24.9125 77.5428 12.584 92.7623 12.584C100.67 12.584 107.812 15.9 112.828 21.2566C119.035 20.0663 124.987 17.7705 130.258 14.6246C128.218 21.0016 123.881 26.3582 118.185 29.759C123.712 29.1641 129.068 27.6333 133.999 25.5079C130.259 30.9493 125.582 35.7956 120.226 39.7069V39.7069Z" fill="#525020"/>
</svg>
