<svg width="318" height="242" viewBox="0 0 318 242" fill="none" xmlns="http://www.w3.org/2000/svg">
<path fill-rule="evenodd" clip-rule="evenodd" d="M20.25 24.125C20.25 20.8078 23.2875 18.0938 27 18.0938H189C192.712 18.0938 195.75 20.8078 195.75 24.125V32.4557L123.019 85.8322C114.286 92.2404 101.756 92.2404 93.0234 85.8322L20.25 32.4557V24.125ZM20.25 120.625V55.8645L80.1562 99.8172C96.3141 111.691 119.644 111.691 135.844 99.8172L195.75 55.8645V110.312C190.132 115.008 185.216 120.516 181.184 126.656H27C23.2875 126.656 20.25 123.942 20.25 120.625ZM172.538 144.75H27C12.1078 144.75 0 133.931 0 120.625V24.125C0 10.8186 12.1078 0 27 0H189C203.892 0 216 10.8186 216 24.125V98.2399C224.508 94.8587 233.787 93 243.5 93C284.645 93 318 126.355 318 167.5C318 208.645 284.645 242 243.5 242C202.355 242 169 208.645 169 167.5C169 159.566 170.24 151.921 172.538 144.75ZM243.5 212C252.712 212 261.27 209.201 268.37 204.407L242.296 179.445L217.863 203.878C225.11 208.994 233.954 212 243.5 212ZM254.296 167.414L280.391 192.395C285.195 185.29 288 176.722 288 167.5C288 158.228 285.164 149.617 280.312 142.49L254.296 167.414ZM242.295 155.356L268.248 130.511C261.172 125.767 252.659 123 243.5 123C234.005 123 225.205 125.974 217.98 131.04L242.295 155.356ZM199 167.5C199 158.431 201.713 149.995 206.372 142.961L230.807 167.414L206.296 191.925C201.684 184.913 199 176.52 199 167.5Z" fill="#525020"/>
</svg>
