<svg width="145" height="129" viewBox="0 0 145 129" fill="none" xmlns="http://www.w3.org/2000/svg">
<path d="M138.368 31.2631C136.787 25.3044 132.128 20.6115 126.213 19.0189C115.492 16.125 72.5 16.125 72.5 16.125C72.5 16.125 29.5085 16.125 18.7868 19.0189C12.8718 20.6118 8.21312 25.3044 6.63197 31.2631C3.75916 42.0636 3.75916 64.5978 3.75916 64.5978C3.75916 64.5978 3.75916 87.1319 6.63197 97.9324C8.21312 103.891 12.8718 108.388 18.7868 109.981C29.5085 112.875 72.5 112.875 72.5 112.875C72.5 112.875 115.491 112.875 126.213 109.981C132.128 108.388 136.787 103.891 138.368 97.9324C141.241 87.1319 141.241 64.5978 141.241 64.5978C141.241 64.5978 141.241 42.0636 138.368 31.2631V31.2631ZM58.4393 85.0571V44.1384L94.3718 64.5983L58.4393 85.0571V85.0571Z" fill="#525020"/>
</svg>
