<svg width="191" height="153" viewBox="0 0 191 153" fill="none" xmlns="http://www.w3.org/2000/svg">
<path d="M66.85 76.5C45.7505 76.5 28.65 59.3771 28.65 38.25C28.65 17.1229 45.7505 0 66.85 0C87.9495 0 105.05 17.1229 105.05 38.25C105.05 59.3771 87.9495 76.5 66.85 76.5ZM53.2114 90.8438H80.4886C84.0102 90.8438 87.472 91.2023 90.7847 91.8299C90.158 97.3582 92.9931 102.468 97.2906 105.217C92.3366 108.385 89.3223 114.66 91.3219 121.145C92.5156 125 94.1272 128.765 96.2163 132.381C98.3053 135.997 100.752 139.284 103.498 142.242C108.184 147.292 115.316 147.741 120.569 144.842V145.111C120.569 147.86 121.375 150.639 122.926 152.97H8.86359C3.96922 153 0 149.026 0 144.125C0 114.69 23.8153 90.8438 53.2114 90.8438ZM130.119 65.2043C130.119 63.1125 131.462 61.2299 133.491 60.7816C136.625 60.0645 139.908 59.676 143.25 59.676C146.593 59.676 149.875 60.0645 153.009 60.7816C155.038 61.2299 156.381 63.1125 156.381 65.2043V74.3484C158.739 75.3645 160.977 76.6494 163.036 78.1734L170.468 73.9002C172.288 72.8543 174.556 73.0934 175.989 74.6174C178.257 77.0379 180.256 79.7572 181.987 82.7455C183.718 85.7338 185.061 88.8416 186.016 92.0092C186.643 94.0113 185.688 96.1031 183.867 97.149L176.406 101.452C176.526 102.647 176.615 103.873 176.615 105.128C176.615 106.383 176.556 107.578 176.406 108.803L183.867 113.106C185.688 114.152 186.613 116.244 186.016 118.246C185.031 121.414 183.688 124.522 181.987 127.51C180.286 130.498 178.257 133.218 175.989 135.638C174.556 137.162 172.258 137.401 170.468 136.355L163.036 132.082C160.977 133.606 158.769 134.891 156.381 135.907V145.051C156.381 147.143 155.038 149.026 153.009 149.474C149.875 150.191 146.593 150.579 143.25 150.579C139.908 150.579 136.625 150.191 133.491 149.474C131.462 149.026 130.119 147.143 130.119 145.051V135.907C127.731 134.891 125.463 133.606 123.404 132.052L116.032 136.325C114.212 137.371 111.944 137.132 110.511 135.608C108.243 133.188 106.244 130.468 104.513 127.48C102.782 124.492 101.439 121.384 100.484 118.216C99.8572 116.214 100.812 114.122 102.633 113.077L110.034 108.803C109.915 107.578 109.825 106.353 109.825 105.098C109.825 103.843 109.885 102.618 110.034 101.392L102.603 97.1191C100.782 96.0732 99.8572 93.9814 100.454 91.9793C101.439 88.8117 102.752 85.7039 104.483 82.7156C106.214 79.7273 108.213 77.008 110.482 74.5875C111.914 73.0635 114.182 72.8244 116.003 73.8703L123.404 78.1436C125.463 76.6195 127.731 75.3346 130.119 74.2887V65.2043V65.2043ZM157.605 105.098C157.605 97.1789 151.188 90.7541 143.25 90.7541C135.312 90.7541 128.895 97.1789 128.895 105.098C128.895 113.017 135.312 119.442 143.25 119.442C151.188 119.442 157.605 113.017 157.605 105.098Z" fill="#525020"/>
</svg>
